<?xml version="1.0" encoding="utf-8"?>
<!-- Generator: Adobe Illustrator 25.0.1, SVG Export Plug-In . SVG Version: 6.00 Build 0)  -->
<svg version="1.1" id="Layer_1" xmlns="http://www.w3.org/2000/svg" xmlns:xlink="http://www.w3.org/1999/xlink" x="0px" y="0px"
	 viewBox="0 0 793.7 481.9" style="enable-background:new 0 0 793.7 481.9;" xml:space="preserve">
<style type="text/css">
	.st0{fill:#066B7B;}
	.st1{fill:#FFFFFF;}
	.st2{fill:#033434;}
	.st3{fill:#51A2AA;}
	.st4{fill:#3C7D84;}
	.st5{fill:#20727A;}
	.st6{fill:none;stroke:#939598;stroke-width:3;stroke-miterlimit:10;}
	.st7{fill:none;stroke:#939598;stroke-width:3;stroke-linecap:round;stroke-miterlimit:10;}
	.st8{fill:#010101;}
</style>
<path class="st0" d="M186.9,265.7H51.6c-17.7,0-32-14.3-32-32V51.3c0-17.7,14.3-32,32-32h135.3c17.7,0,32,14.3,32,32v182.4
	C218.9,251.3,204.6,265.7,186.9,265.7z"/>
<path class="st0" d="M514.3,462.9h-235c-17.7,0-32-14.3-32-32V51.3c0-17.7,14.3-32,32-32h235c17.7,0,32,14.3,32,32v379.6
	C546.3,448.6,532,462.9,514.3,462.9z"/>
<path class="st0" d="M742,265.7H606.7c-17.7,0-32-14.3-32-32V51.3c0-17.7,14.3-32,32-32H742c17.7,0,32,14.3,32,32v182.4
	C774,251.3,759.7,265.7,742,265.7z"/>
<path class="st1" d="M190.1,140H48.4c-6.4,0-11.6-5.2-11.6-11.6v-14.7c0-6.4,5.2-11.6,11.6-11.6h141.8c6.4,0,11.6,5.2,11.6,11.6
	v14.7C201.7,134.8,196.5,140,190.1,140z"/>
<path class="st1" d="M376.5,424.6h-98.6c-6.5,0-11.7-5.2-11.7-11.7V163.5c0-6.5,5.2-11.7,11.7-11.7h98.6c6.5,0,11.7,5.2,11.7,11.7
	v249.4C388.2,419.4,383,424.6,376.5,424.6z"/>
<path class="st1" d="M519.1,424.6H417.8c-5.7,0-10.4-4.6-10.4-10.4V221c0-5.7,4.6-10.4,10.4-10.4h101.3c5.7,0,10.4,4.6,10.4,10.4
	v193.3C529.4,420,524.8,424.6,519.1,424.6z"/>
<path class="st1" d="M524.6,198.9H412.3c-2.7,0-4.9-2.2-4.9-4.9v-37.4c0-2.7,2.2-4.9,4.9-4.9h112.3c2.7,0,4.9,2.2,4.9,4.9V194
	C529.4,196.7,527.2,198.9,524.6,198.9z"/>
<path class="st1" d="M753,217.8H594c-5.3,0-9.6-4.3-9.6-9.6V102.4c0-5.3,4.3-9.6,9.6-9.6h159c5.3,0,9.6,4.3,9.6,9.6v105.8
	C762.5,213.5,758.2,217.8,753,217.8z"/>
<path class="st1" d="M518.9,140H274.7c-6.4,0-11.6-5.2-11.6-11.6v-14.7c0-6.4,5.2-11.6,11.6-11.6H519c6.4,0,11.6,5.2,11.6,11.6v14.7
	C530.5,134.8,525.3,140,518.9,140z"/>
<path class="st1" d="M190.1,188.4H48.4c-6.4,0-11.6-5.2-11.6-11.6v-14.7c0-6.4,5.2-11.6,11.6-11.6h141.8c6.4,0,11.6,5.2,11.6,11.6
	v14.7C201.7,183.2,196.5,188.4,190.1,188.4z"/>
<path class="st1" d="M190.1,236.7H48.4c-6.4,0-11.6-5.2-11.6-11.6v-14.7c0-6.4,5.2-11.6,11.6-11.6h141.8c6.4,0,11.6,5.2,11.6,11.6
	v14.7C201.7,231.5,196.5,236.7,190.1,236.7z"/>
<g>
	<path class="st2" d="M44.9,124.6c0-3.3,2.2-5.4,4.6-5.4c1.2,0,2.2,0.5,3.1,1.3l0,0l-0.1-1.9v-3.9h1.7v14.9h-1.4l-0.1-1.3h-0.1
		c-0.8,0.9-2.1,1.6-3.3,1.6C46.7,130,44.9,128,44.9,124.6z M52.6,127v-5.1c-0.9-0.9-1.8-1.2-2.7-1.2c-1.8,0-3.2,1.6-3.2,3.9
		c0,2.4,1.1,3.9,3,3.9C50.7,128.5,51.7,128,52.6,127z"/>
	<path class="st2" d="M57.5,124.6c0-3.4,2.4-5.4,5-5.4c2.6,0,5,2,5,5.4s-2.4,5.3-5,5.3C59.9,129.9,57.5,128,57.5,124.6z M65.8,124.6
		c0-2.4-1.3-3.9-3.3-3.9c-2,0-3.3,1.6-3.3,3.9c0,2.3,1.3,3.9,3.3,3.9C64.5,128.5,65.8,127,65.8,124.6z"/>
	<path class="st2" d="M70.5,124.6c0-3.4,2.6-5.4,5.7-5.4c1.7,0,2.9,0.7,3.7,1.5l-0.9,1.1c-0.8-0.7-1.7-1.2-2.8-1.2
		c-2.4,0-4,1.6-4,3.9c0,2.3,1.6,3.9,3.9,3.9c1.3,0,2.3-0.6,3.1-1.3l0.8,1.1c-1.1,1-2.5,1.6-4.1,1.6C72.9,130,70.5,128,70.5,124.6z"
		/>
	<path class="st2" d="M83.7,114.8h1.7v10.1h0.1l5.5-5.4h2l-7.6,7.4v2.8h-1.7V114.8z M87.6,124.3l1-1.1l4.9,6.6h-1.9L87.6,124.3z"/>
	<path class="st2" d="M95.5,124.6c0-3.3,2.5-5.3,5.2-5.3c2.9,0,4.7,1.9,4.7,4.8c0,0.4,0,0.8-0.1,1h-8.6v-1.3h7.6l-0.4,0.5
		c0-2.4-1.2-3.6-3.1-3.6s-3.5,1.4-3.5,4s1.7,4,4,4c1.2,0,2.2-0.4,3.1-1l0.6,1.1c-1,0.7-2.3,1.2-3.9,1.2
		C97.9,130,95.5,128,95.5,124.6z"/>
	<path class="st2" d="M109.7,119.5h1.4l0.2,2.4l0,0c1.1-1.7,2.7-2.7,4.6-2.7c0.8,0,1.4,0.1,2,0.4l-0.4,1.5c-0.7-0.2-1.1-0.3-1.9-0.3
		c-1.5,0-3,0.8-4.2,2.9v6h-1.7V119.5z"/>
	<path class="st2" d="M135.4,128.6L135.4,128.6l-0.2,1.1h-1.4v-14.9h1.7v4.1l-0.1,2h0.1c0.9-0.9,2.2-1.6,3.4-1.6
		c2.8,0,4.2,2,4.2,5.2c0,3.5-2.2,5.5-4.6,5.5C137.6,130,136.4,129.4,135.4,128.6z M141.4,124.5c0-2.2-0.8-3.7-2.9-3.7
		c-0.9,0-2,0.5-3,1.5v5.1c0.9,0.9,2,1.2,2.8,1.2C140.1,128.5,141.4,127,141.4,124.5z"/>
	<path class="st2" d="M146.1,125.8v-6.3h1.7v6.1c0,1.9,0.7,2.8,2.4,2.8c1.2,0,2-0.5,3.2-1.9v-7.1h1.7v10.2h-1.4l-0.1-1.8h-0.2
		c-1,1.2-2.2,2-3.8,2C147.2,130,146.1,128.5,146.1,125.8z"/>
	<path class="st2" d="M163.7,120.9H159v-1.4h6.5v10.2h-1.7v-8.8H163.7z M163,116c0-0.8,0.6-1.3,1.4-1.3s1.4,0.5,1.4,1.3
		s-0.6,1.3-1.4,1.3S163,116.8,163,116z"/>
	<path class="st2" d="M174.8,126.3v-10.1h-3.6v-1.4h5.4v11.7c0,1.5,0.8,2.1,2,2.1c0.6,0,1.2-0.1,1.9-0.5l0.4,1.3
		c-0.9,0.4-1.6,0.6-2.7,0.6C176,130,174.8,128.7,174.8,126.3z"/>
	<path class="st2" d="M183.5,124.6c0-3.3,2.2-5.4,4.6-5.4c1.2,0,2.2,0.5,3.1,1.3l0,0l-0.1-1.9v-3.9h1.7v14.9h-1.4l-0.1-1.3h-0.1
		c-0.8,0.9-2.1,1.6-3.3,1.6C185.3,130,183.5,128,183.5,124.6z M191.2,127v-5.1c-0.9-0.9-1.8-1.2-2.7-1.2c-1.8,0-3.2,1.6-3.2,3.9
		c0,2.4,1.1,3.9,3,3.9C189.3,128.5,190.3,128,191.2,127z"/>
</g>
<g>
	<path class="st2" d="M51.2,172.5c0-3.3,2.2-5.4,4.6-5.4c1.2,0,2.2,0.5,3.1,1.3l0,0l-0.1-1.9v-3.9h1.7v14.9h-1.4l-0.1-1.3h-0.1
		c-0.8,0.9-2.1,1.6-3.3,1.6C53,177.8,51.2,175.9,51.2,172.5z M58.9,174.8v-5.1c-0.9-0.9-1.8-1.2-2.7-1.2c-1.8,0-3.2,1.6-3.2,3.9
		c0,2.4,1.1,3.9,3,3.9C57,176.4,58,175.9,58.9,174.8z"/>
	<path class="st2" d="M63.8,172.5c0-3.4,2.4-5.4,5-5.4s5,2,5,5.4s-2.4,5.3-5,5.3S63.8,175.9,63.8,172.5z M72.1,172.5
		c0-2.4-1.3-3.9-3.3-3.9s-3.3,1.6-3.3,3.9s1.3,3.9,3.3,3.9S72.1,174.8,72.1,172.5z"/>
	<path class="st2" d="M76.8,172.5c0-3.4,2.6-5.4,5.7-5.4c1.7,0,2.9,0.7,3.7,1.5l-0.9,1.1c-0.8-0.7-1.7-1.2-2.8-1.2
		c-2.4,0-4,1.6-4,3.9s1.6,3.9,3.9,3.9c1.3,0,2.3-0.6,3.1-1.3l0.8,1.1c-1.1,1-2.5,1.6-4.1,1.6C79.2,177.8,76.8,175.9,76.8,172.5z"/>
	<path class="st2" d="M90,162.6h1.7v10.1h0.1l5.5-5.4h2l-7.6,7.4v2.8H90V162.6z M93.9,172.2l1-1.1l4.9,6.6h-1.9L93.9,172.2z"/>
	<path class="st2" d="M101.8,172.5c0-3.3,2.5-5.3,5.2-5.3c2.9,0,4.7,1.9,4.7,4.8c0,0.4,0,0.8-0.1,1H103v-1.3h7.6l-0.4,0.5
		c0-2.4-1.2-3.6-3.1-3.6s-3.5,1.4-3.5,4s1.7,4,4,4c1.2,0,2.2-0.4,3.1-1l0.6,1.1c-1,0.7-2.3,1.2-3.9,1.2
		C104.2,177.8,101.8,175.9,101.8,172.5z"/>
	<path class="st2" d="M116,167.4h1.4l0.2,2.4l0,0c1.1-1.7,2.7-2.7,4.6-2.7c0.8,0,1.4,0.1,2,0.4l-0.4,1.5c-0.7-0.2-1.1-0.3-1.9-0.3
		c-1.5,0-3,0.8-4.2,2.9v6H116V167.4z"/>
	<path class="st2" d="M140.1,167.4h1.4l0.1,1.3h0.1c0.9-0.9,2.3-1.6,3.5-1.6c2.8,0,4.2,2,4.2,5.2c0,3.5-2.2,5.5-4.6,5.5
		c-0.9,0-2.1-0.5-3-1.3l0,0l0.1,1.9v3.4h-1.7v-14.4H140.1z M147.7,172.3c0-2.2-0.8-3.7-2.9-3.7c-0.9,0-2,0.5-3,1.5v5.1
		c0.9,0.9,2,1.2,2.7,1.2C146.4,176.4,147.7,174.8,147.7,172.3z"/>
	<path class="st2" d="M152.4,173.7v-6.3h1.7v6.1c0,1.9,0.7,2.8,2.4,2.8c1.2,0,2-0.5,3.2-1.9v-7.1h1.7v10.2H160l-0.1-1.8h-0.1
		c-1,1.2-2.2,2-3.8,2C153.5,177.8,152.4,176.4,152.4,173.7z"/>
	<path class="st2" d="M168.5,174.2V164h-3.6v-1.4h5.4v11.7c0,1.5,0.8,2.1,2,2.1c0.6,0,1.2-0.1,1.9-0.5l0.4,1.3
		c-0.9,0.4-1.6,0.6-2.7,0.6C169.7,177.8,168.5,176.6,168.5,174.2z"/>
	<path class="st2" d="M181.1,174.2V164h-3.6v-1.4h5.4v11.7c0,1.5,0.8,2.1,2,2.1c0.6,0,1.2-0.1,1.9-0.5l0.4,1.3
		c-0.9,0.4-1.6,0.6-2.7,0.6C182.3,177.8,181.1,176.6,181.1,174.2z"/>
</g>
<g>
	<path class="st2" d="M57.5,219.2c0-3.3,2.2-5.4,4.6-5.4c1.2,0,2.2,0.5,3.1,1.3l0,0l-0.1-1.9v-3.9h1.7v14.9h-1.4l-0.1-1.3h-0.1
		c-0.8,0.9-2.1,1.6-3.3,1.6C59.3,224.5,57.5,222.6,57.5,219.2z M65.2,221.6v-5.1c-0.9-0.9-1.8-1.2-2.7-1.2c-1.8,0-3.2,1.6-3.2,3.9
		c0,2.4,1.1,3.9,3,3.9C63.3,223.1,64.3,222.6,65.2,221.6z"/>
	<path class="st2" d="M70.1,219.2c0-3.4,2.4-5.4,5-5.4s5,2,5,5.4s-2.4,5.3-5,5.3S70.1,222.6,70.1,219.2z M78.4,219.2
		c0-2.4-1.3-3.9-3.3-3.9s-3.3,1.6-3.3,3.9s1.3,3.9,3.3,3.9S78.4,221.5,78.4,219.2z"/>
	<path class="st2" d="M83.1,219.2c0-3.4,2.6-5.4,5.7-5.4c1.7,0,2.9,0.7,3.7,1.5l-0.9,1.1c-0.8-0.7-1.7-1.2-2.8-1.2
		c-2.4,0-4,1.6-4,3.9s1.6,3.9,3.9,3.9c1.3,0,2.3-0.6,3.1-1.3l0.8,1.1c-1.1,1-2.5,1.6-4.1,1.6C85.5,224.5,83.1,222.6,83.1,219.2z"/>
	<path class="st2" d="M96.3,209.3H98v10.1h0.1l5.5-5.4h2l-7.6,7.4v2.8h-1.7V209.3z M100.2,218.9l1-1.1l4.9,6.6h-1.9L100.2,218.9z"/>
	<path class="st2" d="M108.1,219.2c0-3.3,2.5-5.3,5.2-5.3c2.9,0,4.7,1.9,4.7,4.8c0,0.4,0,0.8-0.1,1h-8.6v-1.3h7.6l-0.4,0.5
		c0-2.4-1.2-3.6-3.1-3.6s-3.5,1.4-3.5,4s1.7,4,4,4c1.2,0,2.2-0.4,3.1-1l0.6,1.1c-1,0.7-2.3,1.2-3.9,1.2
		C110.5,224.5,108.1,222.6,108.1,219.2z"/>
	<path class="st2" d="M122.3,214.1h1.4l0.2,2.4l0,0c1.1-1.7,2.7-2.7,4.6-2.7c0.8,0,1.4,0.1,2,0.4l-0.4,1.5c-0.7-0.2-1.1-0.3-1.9-0.3
		c-1.5,0-3,0.8-4.2,2.9v6h-1.7L122.3,214.1L122.3,214.1z"/>
	<path class="st2" d="M147.5,214.1h1.4l0.2,2.4l0,0c1.1-1.7,2.7-2.7,4.6-2.7c0.8,0,1.4,0.1,2,0.4l-0.4,1.5c-0.7-0.2-1.1-0.3-1.9-0.3
		c-1.5,0-3,0.8-4.2,2.9v6h-1.7L147.5,214.1L147.5,214.1z"/>
	<path class="st2" d="M158.7,220.4v-6.3h1.7v6.1c0,1.9,0.7,2.8,2.4,2.8c1.2,0,2-0.5,3.2-1.9V214h1.7v10.2h-1.4l-0.1-1.8h-0.1
		c-1,1.2-2.2,2-3.8,2C159.8,224.5,158.7,223.1,158.7,220.4z"/>
	<path class="st2" d="M171.6,214.1h1.4l0.1,1.7h0.1c1.1-1.1,2.2-2,3.8-2c2.4,0,3.5,1.4,3.5,4.1v6.3h-1.7v-6.1c0-1.9-0.7-2.8-2.3-2.8
		c-1.2,0-2,0.6-3.2,1.8v7.1h-1.7L171.6,214.1L171.6,214.1z"/>
</g>
<g>
	<path class="st1" d="M59.6,70.5c-1.2,0.6-3.5,1.2-6.4,1.2c-6.8,0-12-4.3-12-12.3c0-7.6,5.1-12.7,12.7-12.7c3,0,4.9,0.6,5.8,1.1
		l-0.8,2.6c-1.2-0.6-2.9-1-4.9-1c-5.7,0-9.5,3.6-9.5,10c0,5.9,3.4,9.8,9.3,9.8c1.9,0,3.9-0.4,5.1-1L59.6,70.5z"/>
	<path class="st1" d="M63.4,45.7h3.2v25.6h-3.2V45.7z"/>
	<path class="st1" d="M75.5,48.9c0,1.1-0.8,1.9-2,1.9c-1.1,0-1.9-0.9-1.9-1.9c0-1.1,0.8-2,2-2C74.7,46.9,75.5,47.8,75.5,48.9z
		 M71.9,71.2V53.8h3.2v17.4H71.9z"/>
	<path class="st1" d="M82.1,63.1c0.1,4.3,2.8,6,6,6c2.3,0,3.6-0.4,4.8-0.9l0.5,2.3c-1.1,0.5-3,1.1-5.8,1.1c-5.4,0-8.6-3.5-8.6-8.8
		s3.1-9.4,8.2-9.4c5.7,0,7.2,5,7.2,8.2c0,0.6-0.1,1.2-0.1,1.5L82.1,63.1L82.1,63.1z M91.4,60.8c0-2-0.8-5.1-4.4-5.1
		c-3.2,0-4.6,3-4.9,5.1H91.4z"/>
	<path class="st1" d="M98.4,58.5c0-1.8,0-3.3-0.1-4.7h2.8l0.2,2.9h0.1c0.9-1.7,2.9-3.3,5.8-3.3c2.4,0,6.2,1.4,6.2,7.4v10.4h-3.2v-10
		c0-2.8-1-5.1-4-5.1c-2.1,0-3.7,1.5-4.2,3.2c-0.1,0.4-0.2,0.9-0.2,1.5v10.5h-3.4V58.5z"/>
	<path class="st1" d="M122,48.8v5h4.5v2.4H122v9.4c0,2.2,0.6,3.4,2.4,3.4c0.8,0,1.4-0.1,1.8-0.2l0.1,2.4c-0.6,0.3-1.6,0.4-2.8,0.4
		c-1.5,0-2.7-0.5-3.4-1.3c-0.9-0.9-1.2-2.5-1.2-4.5v-9.5h-2.7v-2.4h2.7v-4.2L122,48.8z"/>
</g>
<g>
	<path class="st1" d="M275.2,47.7c1.9-0.3,4.2-0.5,6.7-0.5c4.5,0,7.7,1,9.8,3c2.2,2,3.4,4.8,3.4,8.7c0,4-1.2,7.2-3.5,9.4
		c-2.3,2.3-6,3.5-10.7,3.5c-2.2,0-4.1-0.1-5.7-0.3L275.2,47.7L275.2,47.7z M278.3,69.1c0.8,0.1,1.9,0.2,3.2,0.2
		c6.7,0,10.3-3.7,10.3-10.3c0-5.7-3.2-9.4-9.8-9.4c-1.6,0-2.8,0.1-3.7,0.3V69.1z"/>
	<path class="st1" d="M315,62.7c0,6.4-4.5,9.3-8.7,9.3c-4.7,0-8.4-3.5-8.4-9c0-5.8,3.8-9.3,8.6-9.3C311.6,53.8,315,57.4,315,62.7z
		 M301.1,62.9c0,3.8,2.2,6.7,5.3,6.7c3,0,5.3-2.8,5.3-6.8c0-3-1.5-6.7-5.2-6.7C302.8,56.2,301.1,59.6,301.1,62.9z"/>
	<path class="st1" d="M331.4,71c-0.8,0.4-2.7,1-5,1c-5.3,0-8.7-3.6-8.7-8.9c0-5.4,3.7-9.3,9.4-9.3c1.9,0,3.5,0.5,4.4,0.9l-0.7,2.4
		c-0.8-0.4-1.9-0.8-3.7-0.8c-4,0-6.2,3-6.2,6.6c0,4,2.6,6.5,6,6.5c1.8,0,3-0.5,3.9-0.9L331.4,71z"/>
	<path class="st1" d="M338.2,62.2L338.2,62.2c0.5-0.6,1.1-1.4,1.6-2l5.1-6h3.8l-6.7,7.2l7.7,10.3h-3.9l-6-8.4l-1.6,1.8v6.6h-3.1V46
		h3.1V62.2z"/>
	<path class="st1" d="M353.7,63.5c0.1,4.3,2.8,6,6,6c2.3,0,3.6-0.4,4.8-0.9l0.5,2.3c-1.1,0.5-3,1.1-5.8,1.1c-5.4,0-8.6-3.5-8.6-8.8
		s3.1-9.4,8.2-9.4c5.7,0,7.2,5,7.2,8.2c0,0.6-0.1,1.2-0.1,1.5L353.7,63.5L353.7,63.5z M363,61.2c0-2-0.8-5.1-4.4-5.1
		c-3.2,0-4.6,3-4.9,5.1H363z"/>
	<path class="st1" d="M370,59.6c0-2.1,0-3.8-0.1-5.4h2.8l0.1,3.4h0.1c0.8-2.3,2.7-3.8,4.8-3.8c0.4,0,0.6,0,0.9,0.1v3
		c-0.3-0.1-0.6-0.1-1.1-0.1c-2.2,0-3.8,1.7-4.2,4.1c-0.1,0.4-0.1,0.9-0.1,1.5v9.3h-3.1L370,59.6L370,59.6z"/>
	<path class="st1" d="M389.4,46h3.2v10.9h0.1c0.5-0.9,1.3-1.7,2.3-2.2c0.9-0.5,2.1-0.9,3.2-0.9c2.3,0,6.1,1.4,6.1,7.5v10.4h-3.2v-10
		c0-2.8-1-5.2-4-5.2c-2.1,0-3.7,1.4-4.2,3.2c-0.2,0.4-0.2,0.9-0.2,1.5v10.5h-3.3V46z"/>
	<path class="st1" d="M425.1,62.7c0,6.4-4.5,9.3-8.7,9.3c-4.7,0-8.4-3.5-8.4-9c0-5.8,3.8-9.3,8.6-9.3
		C421.8,53.8,425.1,57.4,425.1,62.7z M411.3,62.9c0,3.8,2.2,6.7,5.3,6.7c3,0,5.3-2.8,5.3-6.8c0-3-1.5-6.7-5.2-6.7
		S411.3,59.6,411.3,62.9z"/>
	<path class="st1" d="M428.7,68.4c0.9,0.6,2.6,1.3,4.2,1.3c2.3,0,3.4-1.2,3.4-2.6c0-1.5-0.9-2.3-3.2-3.2c-3.1-1.1-4.6-2.8-4.6-4.9
		c0-2.8,2.3-5.1,6-5.1c1.8,0,3.3,0.5,4.3,1.1l-0.8,2.3c-0.7-0.4-1.9-1-3.6-1c-1.9,0-2.9,1.1-2.9,2.4c0,1.4,1,2.1,3.3,3
		c3,1.2,4.6,2.7,4.6,5.3c0,3.1-2.4,5.2-6.5,5.2c-1.9,0-3.7-0.5-4.9-1.2L428.7,68.4z"/>
	<path class="st1" d="M447.2,49.2v5h4.5v2.4h-4.5V66c0,2.2,0.6,3.4,2.4,3.4c0.8,0,1.4-0.1,1.8-0.2l0.1,2.4c-0.6,0.3-1.6,0.4-2.8,0.4
		c-1.5,0-2.7-0.5-3.4-1.3c-0.9-0.9-1.2-2.5-1.2-4.5v-9.5h-2.7v-2.4h2.7V50L447.2,49.2z"/>
</g>
<g>
	<path class="st1" d="M601.5,47.3c1.6-0.3,3.9-0.5,6-0.5c3.3,0,5.5,0.6,7,2c1.2,1.1,1.9,2.7,1.9,4.6c0,3.2-2,5.3-4.6,6.2v0.1
		c1.9,0.6,3,2.4,3.6,4.9c0.8,3.4,1.4,5.7,1.9,6.7h-3.2c-0.4-0.7-0.9-2.8-1.6-5.8c-0.7-3.3-2-4.6-4.9-4.7h-3v10.5h-3.1L601.5,47.3
		L601.5,47.3z M604.6,58.4h3.2c3.3,0,5.5-1.8,5.5-4.6c0-3.1-2.3-4.5-5.6-4.5c-1.5,0-2.6,0.1-3.1,0.3L604.6,58.4L604.6,58.4z"/>
	<path class="st1" d="M622.7,63.1c0.1,4.3,2.8,6,6,6c2.3,0,3.6-0.4,4.8-0.9l0.5,2.3c-1.1,0.5-3,1.1-5.8,1.1c-5.4,0-8.6-3.5-8.6-8.8
		s3.1-9.4,8.2-9.4c5.7,0,7.2,5,7.2,8.2c0,0.6-0.1,1.2-0.1,1.5L622.7,63.1L622.7,63.1z M632,60.8c0-2-0.8-5.1-4.4-5.1
		c-3.2,0-4.6,3-4.9,5.1H632z"/>
	<path class="st1" d="M654,53.8c-0.1,1.3-0.1,2.7-0.1,4.8v10.1c0,4-0.8,6.4-2.5,8s-4.1,2.1-6.3,2.1c-2.1,0-4.4-0.5-5.8-1.4l0.8-2.4
		c1.2,0.7,3,1.4,5.1,1.4c3.2,0,5.6-1.7,5.6-6.1v-1.9h-0.1c-1,1.6-2.8,2.9-5.5,2.9c-4.3,0-7.4-3.7-7.4-8.5c0-5.9,3.9-9.3,7.8-9.3
		c3,0,4.7,1.6,5.4,3h0.1l0.1-2.6h2.8V53.8z M650.7,60.7c0-0.5,0-1-0.2-1.4c-0.6-1.8-2.1-3.3-4.4-3.3c-3,0-5.2,2.6-5.2,6.6
		c0,3.4,1.7,6.3,5.1,6.3c1.9,0,3.7-1.2,4.4-3.2c0.2-0.5,0.3-1.2,0.3-1.7L650.7,60.7L650.7,60.7z"/>
	<path class="st1" d="M662.4,48.9c0,1.1-0.8,1.9-2,1.9c-1.1,0-1.9-0.9-1.9-1.9c0-1.1,0.8-2,2-2C661.6,46.9,662.4,47.8,662.4,48.9z
		 M658.9,71.2V53.8h3.2v17.4H658.9z"/>
	<path class="st1" d="M666.9,68c0.9,0.6,2.6,1.3,4.2,1.3c2.3,0,3.4-1.2,3.4-2.6c0-1.5-0.9-2.3-3.2-3.2c-3.1-1.1-4.6-2.8-4.6-4.9
		c0-2.8,2.3-5.1,6-5.1c1.8,0,3.3,0.5,4.3,1.1l-0.8,2.3c-0.7-0.4-1.9-1-3.6-1c-1.9,0-2.9,1.1-2.9,2.4c0,1.4,1,2.1,3.3,3
		c3,1.2,4.6,2.7,4.6,5.3c0,3.1-2.4,5.2-6.5,5.2c-1.9,0-3.7-0.5-4.9-1.2L666.9,68z"/>
	<path class="st1" d="M685.4,48.8v5h4.5v2.4h-4.5v9.4c0,2.2,0.6,3.4,2.4,3.4c0.8,0,1.4-0.1,1.8-0.2l0.1,2.4
		c-0.6,0.3-1.6,0.4-2.8,0.4c-1.5,0-2.7-0.5-3.4-1.3c-0.9-0.9-1.2-2.5-1.2-4.5v-9.5h-2.7v-2.4h2.7v-4.2L685.4,48.8z"/>
	<path class="st1" d="M693.5,59.3c0-2.1,0-3.8-0.1-5.4h2.8l0.1,3.4h0.1c0.8-2.3,2.7-3.8,4.8-3.8c0.4,0,0.6,0,0.9,0.1v3
		c-0.3-0.1-0.6-0.1-1.1-0.1c-2.2,0-3.8,1.7-4.2,4.1c-0.1,0.4-0.1,0.9-0.1,1.5v9.3h-3.1V59.3H693.5z"/>
	<path class="st1" d="M707.3,53.8l3.8,10.3c0.4,1.2,0.8,2.5,1.1,3.6h0.1c0.3-1,0.7-2.4,1.1-3.6l3.5-10.2h3.3l-4.8,12.4
		c-2.3,6-3.8,9-6,10.9c-1.5,1.4-3.1,1.9-3.9,2.1l-0.8-2.7c0.8-0.3,1.8-0.8,2.8-1.5c0.9-0.7,1.9-1.9,2.7-3.5c0.1-0.3,0.3-0.6,0.3-0.8
		s-0.1-0.4-0.2-0.8l-6.4-16.1L707.3,53.8L707.3,53.8z"/>
</g>
<g>
	<path class="st2" d="M318.7,113.7c1.3-0.2,2.8-0.3,4.4-0.3c3,0,5.1,0.7,6.6,2c1.4,1.3,2.3,3.2,2.3,5.8s-0.8,4.8-2.3,6.3
		s-4,2.3-7.2,2.3c-1.5,0-2.7-0.1-3.8-0.2V113.7z M320.8,128.1c0.5,0.1,1.3,0.1,2.1,0.1c4.5,0,6.9-2.5,6.9-6.9c0-3.8-2.1-6.2-6.6-6.2
		c-1.1,0-1.9,0.1-2.4,0.2V128.1z"/>
	<path class="st2" d="M345.2,123.8c0,4.3-3,6.2-5.8,6.2c-3.1,0-5.6-2.3-5.6-6c0-3.9,2.5-6.2,5.8-6.2
		C343,117.8,345.2,120.3,345.2,123.8z M336,123.9c0,2.5,1.5,4.5,3.5,4.5s3.5-1.9,3.5-4.5c0-2-1-4.5-3.5-4.5S336,121.7,336,123.9z"/>
	<path class="st2" d="M356.2,129.3c-0.6,0.3-1.8,0.7-3.3,0.7c-3.5,0-5.8-2.4-5.8-5.9c0-3.6,2.4-6.2,6.2-6.2c1.2,0,2.4,0.3,2.9,0.6
		l-0.5,1.6c-0.5-0.3-1.3-0.6-2.4-0.6c-2.7,0-4.1,2-4.1,4.4c0,2.7,1.7,4.3,4,4.3c1.2,0,2-0.3,2.6-0.6L356.2,129.3z"/>
	<path class="st2" d="M360.7,123.4L360.7,123.4c0.3-0.4,0.7-0.9,1.1-1.3l3.4-4h2.5l-4.5,4.8l5.1,6.8h-2.6l-4-5.6l-1.1,1.2v4.4h-2.1
		v-17h2.1v10.7H360.7z"/>
	<path class="st2" d="M371.1,124.3c0,2.9,1.9,4,4,4c1.5,0,2.4-0.3,3.2-0.6l0.4,1.5c-0.7,0.3-2,0.7-3.9,0.7c-3.6,0-5.7-2.4-5.7-5.9
		s2.1-6.3,5.4-6.3c3.8,0,4.8,3.3,4.8,5.5c0,0.4,0,0.8-0.1,1h-8.1V124.3z M377.3,122.8c0-1.3-0.6-3.4-2.9-3.4c-2.1,0-3.1,2-3.2,3.4
		H377.3z"/>
	<path class="st2" d="M381.9,121.7c0-1.4,0-2.5-0.1-3.6h1.8l0.1,2.3h0.1c0.5-1.6,1.8-2.5,3.2-2.5c0.2,0,0.4,0,0.6,0.1v2
		c-0.2,0-0.4-0.1-0.7-0.1c-1.5,0-2.5,1.1-2.8,2.7c0,0.3-0.1,0.6-0.1,1v6.2h-2.1V121.7z"/>
	<path class="st2" d="M404.9,112.7v14c0,1,0,2.2,0.1,3h-1.9l-0.1-2l0,0c-0.6,1.3-2.1,2.3-4,2.3c-2.8,0-5-2.4-5-5.9
		c0-3.9,2.4-6.2,5.2-6.2c1.8,0,3,0.8,3.5,1.8l0,0v-6.9h2.2V112.7z M402.8,122.8c0-0.3,0-0.6-0.1-0.9c-0.3-1.3-1.5-2.4-3-2.4
		c-2.2,0-3.5,1.9-3.5,4.5c0,2.4,1.2,4.3,3.4,4.3c1.4,0,2.7-0.9,3.1-2.5c0.1-0.3,0.1-0.6,0.1-0.9V122.8z"/>
	<path class="st2" d="M414.8,129.7l-0.2-1.5h-0.1c-0.6,0.9-1.9,1.7-3.6,1.7c-2.4,0-3.6-1.7-3.6-3.3c0-2.8,2.5-4.3,7-4.3v-0.2
		c0-1-0.3-2.7-2.6-2.7c-1.1,0-2.2,0.3-3,0.9l-0.5-1.4c1-0.6,2.4-1,3.8-1c3.6,0,4.4,2.4,4.4,4.8v4.3c0,1,0,2,0.2,2.8h-1.8V129.7z
		 M414.5,123.8c-2.3,0-4.9,0.4-4.9,2.6c0,1.4,0.9,2,2,2c1.5,0,2.5-1,2.8-1.9c0.1-0.2,0.1-0.5,0.1-0.7V123.8z"/>
	<path class="st2" d="M421.1,124.3c0,2.9,1.9,4,4,4c1.5,0,2.4-0.3,3.2-0.6l0.4,1.5c-0.7,0.3-2,0.7-3.9,0.7c-3.6,0-5.7-2.4-5.7-5.9
		s2.1-6.3,5.4-6.3c3.8,0,4.8,3.3,4.8,5.5c0,0.4,0,0.8-0.1,1h-8.1V124.3z M427.3,122.8c0-1.3-0.6-3.4-2.9-3.4c-2.1,0-3.1,2-3.2,3.4
		H427.3z"/>
	<path class="st2" d="M432,121.2c0-1.2,0-2.2-0.1-3.1h1.8l0.1,1.9h0.1c0.6-1.1,1.7-2.1,3.6-2.1c1.6,0,2.8,1,3.3,2.3l0,0
		c0.4-0.6,0.8-1.2,1.3-1.5c0.7-0.5,1.5-0.8,2.6-0.8c1.5,0,3.8,1,3.8,5v6.8h-2.1v-6.6c0-2.2-0.8-3.6-2.5-3.6c-1.2,0-2.1,0.9-2.5,1.9
		c-0.1,0.3-0.2,0.7-0.2,1.1v7.2h-2.1v-7c0-1.8-0.8-3.2-2.4-3.2c-1.3,0-2.3,1.1-2.6,2.1c-0.1,0.3-0.2,0.7-0.2,1v7h-2.1v-8.4H432z"/>
	<path class="st2" d="M462.5,123.8c0,4.3-3,6.2-5.8,6.2c-3.1,0-5.6-2.3-5.6-6c0-3.9,2.5-6.2,5.8-6.2
		C460.3,117.8,462.5,120.3,462.5,123.8z M453.3,123.9c0,2.5,1.5,4.5,3.5,4.5s3.5-1.9,3.5-4.5c0-2-1-4.5-3.5-4.5
		S453.3,121.7,453.3,123.9z"/>
	<path class="st2" d="M465.2,121.2c0-1.2,0-2.2-0.1-3.1h1.9l0.1,1.9l0,0c0.6-1.1,1.9-2.2,3.8-2.2c1.6,0,4.1,1,4.1,4.9v6.9h-2.1V123
		c0-1.9-0.7-3.4-2.7-3.4c-1.4,0-2.5,1-2.8,2.2c-0.1,0.3-0.1,0.6-0.1,1v7h-2.1L465.2,121.2L465.2,121.2z"/>
</g>
<g>
	<path class="st2" d="M285.7,180.2c-0.8,0.4-2.3,0.8-4.3,0.8c-4.6,0-8-2.9-8-8.2c0-5.1,3.4-8.5,8.4-8.5c2,0,3.3,0.4,3.8,0.7
		l-0.5,1.7c-0.8-0.4-1.9-0.7-3.3-0.7c-3.8,0-6.3,2.4-6.3,6.7c0,4,2.3,6.5,6.2,6.5c1.3,0,2.6-0.3,3.4-0.7L285.7,180.2z"/>
	<path class="st2" d="M298.5,174.8c0,4.3-3,6.2-5.8,6.2c-3.1,0-5.6-2.3-5.6-6c0-3.9,2.5-6.2,5.8-6.2S298.5,171.2,298.5,174.8z
		 M289.3,174.9c0,2.5,1.5,4.5,3.5,4.5s3.5-1.9,3.5-4.5c0-2-1-4.5-3.5-4.5S289.3,172.7,289.3,174.9z"/>
	<path class="st2" d="M301.1,172.2c0-1.2,0-2.2-0.1-3.1h1.9l0.1,1.9l0,0c0.6-1.1,1.9-2.2,3.8-2.2c1.6,0,4.1,1,4.1,4.9v6.9h-2.1V174
		c0-1.9-0.7-3.4-2.7-3.4c-1.4,0-2.5,1-2.8,2.2c-0.1,0.3-0.1,0.6-0.1,1v7h-2.1L301.1,172.2L301.1,172.2z"/>
	<path class="st2" d="M316.9,165.7v3.3h3v1.6h-3v6.3c0,1.4,0.4,2.3,1.6,2.3c0.6,0,1-0.1,1.2-0.1l0.1,1.6c-0.4,0.2-1.1,0.3-1.9,0.3
		c-1,0-1.8-0.3-2.3-0.9c-0.6-0.6-0.8-1.7-0.8-3v-6.3H313v-1.6h1.8v-2.8L316.9,165.7z"/>
	<path class="st2" d="M328.7,180.7l-0.2-1.5h-0.1c-0.6,0.9-1.9,1.7-3.6,1.7c-2.4,0-3.6-1.7-3.6-3.3c0-2.8,2.5-4.3,7-4.3v-0.2
		c0-1-0.3-2.7-2.6-2.7c-1.1,0-2.2,0.3-3,0.9l-0.5-1.4c1-0.6,2.4-1,3.8-1c3.6,0,4.4,2.4,4.4,4.8v4.3c0,1,0,2,0.2,2.8L328.7,180.7
		L328.7,180.7z M328.4,174.8c-2.3,0-4.9,0.4-4.9,2.6c0,1.4,0.9,2,2,2c1.5,0,2.5-1,2.8-1.9c0.1-0.2,0.1-0.5,0.1-0.7V174.8z"/>
	<path class="st2" d="M336.2,165.8c0,0.7-0.5,1.3-1.3,1.3c-0.7,0-1.3-0.6-1.3-1.3c0-0.7,0.6-1.3,1.3-1.3
		C335.7,164.5,336.2,165.1,336.2,165.8z M333.9,180.7v-11.6h2.1v11.6H333.9z"/>
	<path class="st2" d="M339.5,172.2c0-1.2,0-2.2-0.1-3.1h1.9l0.1,1.9l0,0c0.6-1.1,1.9-2.2,3.8-2.2c1.6,0,4.1,1,4.1,4.9v6.9h-2.1V174
		c0-1.9-0.7-3.4-2.7-3.4c-1.4,0-2.5,1-2.8,2.2c-0.1,0.3-0.1,0.6-0.1,1v7h-2.1L339.5,172.2L339.5,172.2z"/>
	<path class="st2" d="M354,175.3c0,2.9,1.9,4,4,4c1.5,0,2.4-0.3,3.2-0.6l0.4,1.5c-0.7,0.3-2,0.7-3.9,0.7c-3.6,0-5.7-2.4-5.7-5.9
		s2.1-6.3,5.4-6.3c3.8,0,4.8,3.3,4.8,5.5c0,0.4,0,0.8-0.1,1L354,175.3L354,175.3z M360.2,173.8c0-1.3-0.6-3.4-2.9-3.4
		c-2.1,0-3.1,2-3.2,3.4H360.2z"/>
	<path class="st2" d="M364.8,172.7c0-1.4,0-2.5-0.1-3.6h1.8l0.1,2.3h0.1c0.5-1.6,1.8-2.5,3.2-2.5c0.2,0,0.4,0,0.6,0.1v2
		c-0.2,0-0.4-0.1-0.7-0.1c-1.5,0-2.5,1.1-2.8,2.7c0,0.3-0.1,0.6-0.1,1v6.2h-2.1V172.7z"/>
	<path class="st2" d="M372.4,178.5c0.6,0.4,1.7,0.8,2.8,0.8c1.5,0,2.3-0.8,2.3-1.7c0-1-0.6-1.6-2.2-2.1c-2.1-0.7-3.1-1.9-3.1-3.3
		c0-1.9,1.5-3.4,4-3.4c1.2,0,2.2,0.3,2.9,0.7l-0.5,1.5c-0.5-0.3-1.3-0.7-2.4-0.7c-1.2,0-1.9,0.7-1.9,1.6c0,1,0.7,1.4,2.2,2
		c2,0.8,3,1.8,3,3.5c0,2-1.6,3.5-4.3,3.5c-1.3,0-2.4-0.3-3.3-0.8L372.4,178.5z"/>
</g>
<g>
	<path class="st2" d="M433.1,218.1v16.2H431v-16.2H433.1z"/>
	<path class="st2" d="M436.9,225.8c0-1.2,0-2.2-0.1-3.1h1.8l0.1,1.9h0.1c0.6-1.1,1.7-2.1,3.6-2.1c1.6,0,2.8,1,3.3,2.3l0,0
		c0.4-0.6,0.8-1.2,1.3-1.5c0.7-0.5,1.5-0.8,2.6-0.8c1.5,0,3.8,1,3.8,5v6.8h-2v-6.6c0-2.2-0.8-3.6-2.5-3.6c-1.2,0-2.1,0.9-2.5,1.9
		c-0.1,0.3-0.2,0.7-0.2,1.1v7.2h-2.1v-7c0-1.8-0.8-3.2-2.4-3.2c-1.3,0-2.3,1.1-2.6,2.1c-0.1,0.3-0.2,0.7-0.2,1v7h-2.1v-8.4H436.9z"
		/>
	<path class="st2" d="M463.3,234.3l-0.2-1.5H463c-0.6,0.9-1.9,1.7-3.6,1.7c-2.4,0-3.6-1.7-3.6-3.3c0-2.8,2.5-4.3,7-4.3v-0.2
		c0-1-0.3-2.7-2.6-2.7c-1.1,0-2.2,0.3-3,0.9l-0.5-1.4c1-0.6,2.4-1,3.8-1c3.6,0,4.4,2.4,4.4,4.8v4.3c0,1,0,2,0.2,2.8L463.3,234.3
		L463.3,234.3z M463,228.4c-2.3,0-4.9,0.4-4.9,2.6c0,1.4,0.9,2,2,2c1.5,0,2.5-1,2.8-1.9c0.1-0.2,0.1-0.5,0.1-0.7V228.4z"/>
	<path class="st2" d="M478.5,222.7c0,0.8-0.1,1.8-0.1,3.2v6.7c0,2.7-0.5,4.3-1.7,5.3c-1.1,1.1-2.8,1.4-4.2,1.4c-1.4,0-2.9-0.3-3.9-1
		l0.5-1.6c0.8,0.5,2,0.9,3.4,0.9c2.2,0,3.7-1.1,3.7-4.1v-1.3l0,0c-0.6,1.1-1.9,1.9-3.7,1.9c-2.9,0-4.9-2.4-4.9-5.7
		c0-3.9,2.6-6.2,5.2-6.2c2,0,3.1,1.1,3.6,2l0,0l0.1-1.8h2V222.7z M476.3,227.3c0-0.4,0-0.7-0.1-1c-0.4-1.2-1.4-2.2-3-2.2
		c-2,0-3.5,1.7-3.5,4.4c0,2.3,1.2,4.2,3.4,4.2c1.3,0,2.5-0.8,2.9-2.2c0.1-0.4,0.2-0.8,0.2-1.1v-2.1H476.3z"/>
	<path class="st2" d="M483.1,228.9c0,2.9,1.9,4,4,4c1.5,0,2.4-0.3,3.2-0.6l0.4,1.5c-0.7,0.3-2,0.7-3.9,0.7c-3.6,0-5.7-2.4-5.7-5.9
		s2.1-6.3,5.4-6.3c3.8,0,4.8,3.3,4.8,5.5c0,0.4,0,0.8-0.1,1L483.1,228.9L483.1,228.9z M489.3,227.4c0-1.3-0.6-3.4-2.9-3.4
		c-2.1,0-3.1,2-3.2,3.4H489.3z"/>
	<path class="st2" d="M493.6,232.1c0.6,0.4,1.7,0.8,2.8,0.8c1.5,0,2.3-0.8,2.3-1.7c0-1-0.6-1.6-2.2-2.1c-2.1-0.7-3.1-1.9-3.1-3.3
		c0-1.9,1.5-3.4,4-3.4c1.2,0,2.2,0.3,2.9,0.7l-0.5,1.5c-0.5-0.3-1.3-0.7-2.4-0.7c-1.2,0-1.9,0.7-1.9,1.6c0,1,0.7,1.4,2.2,2
		c2,0.8,3,1.8,3,3.5c0,2-1.6,3.5-4.3,3.5c-1.3,0-2.4-0.3-3.3-0.8L493.6,232.1z"/>
</g>
<g>
	<g>
		<path class="st0" d="M299.6,267.3l-13.8-3.1c-0.1,0-0.1-0.1-0.1-0.2v-41.7c0-0.1,0.1-0.2,0.1-0.2l13.8-2.5l0,0h0.1l0.1,0.1v47.2
			c0,0.1,0,0.1-0.1,0.1C299.7,267.3,299.7,267.3,299.6,267.3C299.7,267.3,299.6,267.3,299.6,267.3z"/>
		<path class="st0" d="M299.7,219.9v47.2l-13.8-3.1v-41.7L299.7,219.9 M299.7,219.6C299.7,219.6,299.6,219.6,299.7,219.6l-13.8,2.5
			c-0.2,0-0.3,0.2-0.3,0.3v41.7c0,0.2,0.1,0.3,0.3,0.3l13.8,3.1c0,0,0,0,0.1,0s0.2,0,0.2-0.1c0.1-0.1,0.1-0.2,0.1-0.3v-47.2
			c0-0.1,0-0.2-0.1-0.3C299.8,219.6,299.7,219.6,299.7,219.6L299.7,219.6z"/>
	</g>
	<g>
		<path class="st0" d="M315.3,270.2l-12.9-2.9c-0.1,0-0.1-0.1-0.1-0.2v-47.2c0-0.1,0.1-0.2,0.1-0.2l12.9-2.1h0.1l0.1,0.1V270
			c0,0.1,0,0.1-0.1,0.1C315.4,270.2,315.3,270.2,315.3,270.2L315.3,270.2z"/>
		<path class="st0" d="M315.3,217.8V270l-12.9-2.9v-47.2L315.3,217.8 M315.3,217.4L315.3,217.4l-12.9,2.2c-0.2,0-0.3,0.2-0.3,0.3
			v47.2c0,0.2,0.1,0.3,0.3,0.3l12.9,2.9c0,0,0,0,0.1,0s0.2,0,0.2-0.1c0.1-0.1,0.1-0.2,0.1-0.3v-52.2c0-0.1,0-0.2-0.1-0.3
			C315.5,217.5,315.4,217.4,315.3,217.4L315.3,217.4z"/>
	</g>
	<g>
		<path class="st0" d="M318.1,270.2H318l-0.1-0.1l1.1-52.2c0,0,0-0.1,0.1-0.1h0.1l0,0l49.4,9.5c0.1,0,0.1,0.1,0.1,0.2V260
			c0,0.1-0.1,0.1-0.1,0.2L318.1,270.2L318.1,270.2z"/>
		<path class="st0" d="M319.1,217.8l49.4,9.5v32.5L318.1,270L319.1,217.8 M319.1,217.4c-0.1,0-0.2,0-0.2,0.1
			c-0.1,0.1-0.1,0.2-0.1,0.3l-1.1,52.2c0,0.1,0,0.2,0.1,0.3c0.1,0.1,0.1,0.1,0.2,0.1c0,0,0,0,0.1,0l50.5-10.2c0.2,0,0.3-0.2,0.3-0.3
			v-32.5c0-0.2-0.1-0.3-0.3-0.3L319.1,217.4C319.2,217.4,319.2,217.4,319.1,217.4L319.1,217.4z"/>
	</g>
	<path class="st1" d="M297.3,244.1h-3.9c-0.7,0-1.2-0.5-1.2-1.2l0,0c0-0.7,0.5-1.2,1.2-1.2h3.9c0.7,0,1.2,0.5,1.2,1.2l0,0
		C298.5,243.6,298,244.1,297.3,244.1z"/>
	<path class="st1" d="M308.1,244.1h-3.9c-0.7,0-1.2-0.5-1.2-1.2l0,0c0-0.7,0.5-1.2,1.2-1.2h3.9c0.7,0,1.2,0.5,1.2,1.2l0,0
		C309.3,243.6,308.8,244.1,308.1,244.1z"/>
	<g>
		<path class="st1" d="M342.5,261h-0.1l-0.1-0.1V225c0-0.1,0-0.1,0.1-0.1h0.1l0,0l2.8,0.8c0.1,0,0.1,0.1,0.1,0.2V260
			c0,0.1,0,0.1-0.1,0.2L342.5,261L342.5,261z"/>
		<path class="st1" d="M342.5,225c0.9,0.3,1.9,0.6,2.8,0.8c0,11.4,0,22.8,0,34.2c-0.9,0.3-1.9,0.6-2.8,0.8V225 M342.5,224.7
			c-0.1,0-0.1,0-0.2,0.1s-0.1,0.2-0.1,0.3v35.8c0,0.1,0.1,0.2,0.1,0.3c0.1,0,0.1,0.1,0.2,0.1h0.1l1.4-0.4l1.4-0.4
			c0.1,0,0.2-0.2,0.2-0.3V226c0-0.2-0.1-0.3-0.2-0.3l-1.4-0.4L342.5,224.7C342.6,224.7,342.5,224.7,342.5,224.7L342.5,224.7z"/>
	</g>
	<g>
		<path class="st1" d="M348.3,260.2L348.3,260.2c-0.1-0.1-0.2-0.1-0.2-0.2v-34.2c0-0.1,0-0.1,0.1-0.1h0.1c0,0,0,0,0.1,0l2.2,0.8
			c0.1,0,0.1,0.1,0.1,0.2v32.6c0,0.1,0,0.1-0.1,0.2L348.3,260.2C348.4,260.2,348.4,260.2,348.3,260.2z"/>
		<path class="st1" d="M348.3,225.9c0.7,0.3,1.5,0.5,2.2,0.8c0,10.9,0,21.7,0,32.6c-0.7,0.3-1.5,0.5-2.2,0.8V225.9 M348.3,225.5
			c-0.1,0-0.1,0-0.2,0.1s-0.1,0.2-0.1,0.3V260c0,0.1,0.1,0.2,0.1,0.3c0.1,0,0.1,0.1,0.2,0.1h0.1l1.1-0.4l1.1-0.4
			c0.1,0,0.2-0.2,0.2-0.3v-32.6c0-0.1-0.1-0.3-0.2-0.3l-1.1-0.4l-1.1-0.4C348.4,225.5,348.4,225.5,348.3,225.5L348.3,225.5z"/>
	</g>
	<g>
		<path class="st1" d="M353.6,259.6C353.5,259.6,353.5,259.6,353.6,259.6c-0.1-0.1-0.2-0.1-0.2-0.2v-32.6c0-0.1,0-0.1,0.1-0.1h0.1
			c0,0,0,0,0.1,0l1.9,0.8c0.1,0,0.1,0.1,0.1,0.2v31.1c0,0.1,0,0.1-0.1,0.2L353.6,259.6L353.6,259.6z"/>
		<path class="st1" d="M353.6,226.8c0.6,0.3,1.2,0.5,1.9,0.8c0,10.4,0,20.7,0,31.1c-0.6,0.3-1.2,0.5-1.9,0.8V226.8 M353.6,226.5
			c-0.1,0-0.1,0-0.2,0.1s-0.1,0.2-0.1,0.3v32.6c0,0.1,0.1,0.2,0.1,0.3c0.1,0,0.1,0.1,0.2,0.1h0.1l0.9-0.4l0.9-0.4
			c0.1-0.1,0.2-0.2,0.2-0.3v-31.1c0-0.1-0.1-0.3-0.2-0.3l-1.9-0.8C353.7,226.5,353.6,226.5,353.6,226.5L353.6,226.5z"/>
	</g>
	<g>
		<path class="st1" d="M357.9,258.9C357.9,258.9,357.8,258.9,357.9,258.9c-0.1-0.1-0.2-0.1-0.2-0.2v-31.1c0-0.1,0-0.1,0.1-0.1h0.1
			c0,0,0,0,0.1,0l1.7,0.7c0.1,0,0.1,0.1,0.1,0.2V258c0,0.1,0,0.1-0.1,0.2L357.9,258.9L357.9,258.9z"/>
		<path class="st1" d="M357.9,227.6c0.6,0.2,1.1,0.5,1.7,0.7c0,9.9,0,19.8,0,29.6c-0.6,0.2-1.1,0.5-1.7,0.7V227.6 M357.9,227.3
			c-0.1,0-0.1,0-0.2,0.1s-0.2,0.2-0.2,0.3v31.1c0,0.1,0.1,0.2,0.2,0.3c0.1,0,0.1,0.1,0.2,0.1h0.1l0.9-0.4l0.9-0.4
			c0.1-0.1,0.2-0.2,0.2-0.3v-29.6c0-0.1-0.1-0.3-0.2-0.3l-0.9-0.4l-0.9-0.4C358,227.3,357.9,227.3,357.9,227.3L357.9,227.3z"/>
	</g>
	<g>
		<path class="st1" d="M361.8,258.5L361.8,258.5c-0.1-0.1-0.2-0.1-0.2-0.2V228c0-0.1,0-0.1,0.1-0.1h0.1h0.1l1.4,0.7
			c0.1,0,0.1,0.1,0.1,0.2v29c0,0.1,0,0.1-0.1,0.2L361.8,258.5C361.9,258.5,361.9,258.5,361.8,258.5z"/>
		<path class="st1" d="M361.8,228c0.5,0.2,0.9,0.5,1.4,0.7c0,9.7,0,19.3,0,29c-0.5,0.2-0.9,0.5-1.4,0.7V228 M361.8,227.7
			c-0.1,0-0.1,0-0.2,0c-0.1,0.1-0.2,0.2-0.2,0.3v30.4c0,0.1,0.1,0.2,0.2,0.3c0.1,0,0.1,0,0.2,0s0.1,0,0.2,0l0.7-0.4l0.7-0.4
			c0.1-0.1,0.2-0.2,0.2-0.3v-29c0-0.1-0.1-0.2-0.2-0.3l-1-0.5l-0.3-0.2C361.9,227.7,361.9,227.7,361.8,227.7L361.8,227.7z"/>
	</g>
	<g>
		<path class="st1" d="M365.7,258.3C365.6,258.3,365.6,258.3,365.7,258.3c-0.1-0.1-0.2-0.1-0.2-0.2v-29.4c0-0.1,0-0.1,0.1-0.1h0.1
			h0.1l1.3,0.7c0.1,0,0.1,0.1,0.1,0.2v28.1c0,0.1,0,0.1-0.1,0.2L365.7,258.3L365.7,258.3z"/>
		<path class="st1" d="M365.7,228.7c0.4,0.2,0.9,0.5,1.3,0.7c0,9.4,0,18.7,0,28.1c-0.4,0.2-0.9,0.5-1.3,0.7V228.7 M365.7,228.4
			c-0.1,0-0.1,0-0.2,0c-0.1,0.1-0.2,0.2-0.2,0.3v29.4c0,0.1,0.1,0.2,0.2,0.3c0.1,0,0.1,0,0.2,0s0.1,0,0.2,0l0.7-0.3l0.7-0.3
			c0.1-0.1,0.2-0.2,0.2-0.3v-28.1c0-0.1-0.1-0.2-0.2-0.3l-1.3-0.7C365.8,228.4,365.7,228.4,365.7,228.4L365.7,228.4z"/>
	</g>
	<g>
		<path class="st1" d="M336.4,261.9h-0.1l-0.1-0.1v-37.5c0-0.1,0-0.1,0.1-0.1h0.1l0,0l2.8,0.9c0.1,0,0.1,0.1,0.1,0.2V261
			c0,0.1,0,0.1-0.1,0.2L336.4,261.9L336.4,261.9z"/>
		<path class="st1" d="M336.4,224.2c0.9,0.3,1.9,0.6,2.8,0.9c0,11.9,0,23.8,0,35.7c-0.9,0.3-1.9,0.6-2.8,0.9V224.2 M336.4,223.9
			c-0.1,0-0.1,0-0.2,0.1s-0.1,0.2-0.1,0.3v37.5c0,0.1,0.1,0.2,0.1,0.3c0.1,0,0.1,0.1,0.2,0.1h0.1l1.5-0.5l1.3-0.4
			c0.1,0,0.2-0.2,0.2-0.3v-35.7c0-0.1-0.1-0.3-0.2-0.3l-1.2-0.4L336.4,223.9C336.5,223.9,336.4,223.9,336.4,223.9L336.4,223.9z"/>
	</g>
	<g>
		<path class="st1" d="M329.8,263.1h-0.1l-0.1-0.1v-39.6c0-0.1,0-0.1,0.1-0.1h0.1l0,0l3.4,0.9c0.1,0,0.1,0.1,0.1,0.2V262
			c0,0.1-0.1,0.1-0.1,0.2L329.8,263.1L329.8,263.1z"/>
		<path class="st1" d="M329.8,223.3c1.1,0.3,2.2,0.6,3.4,0.9c0,12.6,0,25.2,0,37.8c-1.1,0.3-2.2,0.6-3.4,0.9V223.3 M329.8,222.9
			c-0.1,0-0.1,0-0.2,0.1s-0.1,0.2-0.1,0.3v39.6c0,0.1,0,0.2,0.1,0.3c0.1,0,0.1,0.1,0.2,0.1h0.1l1.7-0.5l1.7-0.5
			c0.1,0,0.2-0.2,0.2-0.3v-37.8c0-0.2-0.1-0.3-0.2-0.3l-0.9-0.2L329.8,222.9C329.9,222.9,329.8,222.9,329.8,222.9L329.8,222.9z"/>
	</g>
	<g>
		<path class="st1" d="M322.3,264.4h-0.1l-0.1-0.1V222c0-0.1,0-0.1,0.1-0.1h0.1l0,0l3.4,1c0.1,0,0.1,0.1,0.1,0.2v40.4
			c0,0.1,0,0.1-0.1,0.2L322.3,264.4L322.3,264.4z"/>
		<path class="st1" d="M322.3,221.9c1.1,0.3,2.2,0.7,3.4,1c0,13.5,0,26.9,0,40.4c-1.1,0.3-2.2,0.7-3.4,1V221.9 M322.3,221.5
			c-0.1,0-0.1,0-0.2,0.1s-0.1,0.2-0.1,0.3v42.3c0,0.1,0.1,0.2,0.1,0.3c0.1,0,0.1,0.1,0.2,0.1h0.1l1.6-0.5l1.8-0.5
			c0.1,0,0.2-0.2,0.2-0.3v-40.4c0-0.2-0.1-0.3-0.2-0.3l-1.8-0.5L322.3,221.5L322.3,221.5L322.3,221.5z"/>
	</g>
</g>
<g>
	<g>
		<path class="st0" d="M296.3,340.2l-13.8-3.1c-0.1,0-0.1-0.1-0.1-0.2v-41.7c0-0.1,0.1-0.2,0.1-0.2l13.8-2.5l0,0h0.1l0.1,0.1V340
			c0,0.1,0,0.1-0.1,0.1C296.4,340.2,296.4,340.2,296.3,340.2L296.3,340.2z"/>
		<path class="st0" d="M296.3,292.8V340l-13.8-3.1v-41.7L296.3,292.8 M296.3,292.5L296.3,292.5l-13.8,2.5c-0.2,0-0.3,0.2-0.3,0.3
			V337c0,0.2,0.1,0.3,0.3,0.3l13.8,3.1c0,0,0,0,0.1,0s0.2,0,0.2-0.1c0.1-0.1,0.1-0.2,0.1-0.3v-47.2c0-0.1,0-0.2-0.1-0.3
			C296.5,292.5,296.4,292.5,296.3,292.5L296.3,292.5z"/>
	</g>
	<g>
		<path class="st0" d="M311.9,343.1l-12.9-2.9c-0.1,0-0.1-0.1-0.1-0.2v-47.2c0-0.1,0.1-0.2,0.1-0.2l12.9-2.1h0.1l0.1,0.1v52.2
			c0,0.1,0,0.1-0.1,0.1C312,343,312,343.1,311.9,343.1L311.9,343.1z"/>
		<path class="st0" d="M312,290.6v52.2l-12.9-2.9v-47.2L312,290.6 M312,290.3C311.9,290.3,311.9,290.3,312,290.3l-12.9,2.2
			c-0.2,0-0.3,0.2-0.3,0.3V340c0,0.2,0.1,0.3,0.3,0.3l12.9,2.9c0,0,0,0,0.1,0s0.2,0,0.2-0.1c0.1-0.1,0.1-0.2,0.1-0.3v-52.2
			c0-0.1,0-0.2-0.1-0.3C312.1,290.3,312,290.3,312,290.3L312,290.3z"/>
	</g>
	<g>
		<path class="st0" d="M314.7,343.1h-0.1l-0.1-0.1l1.1-52.2c0,0,0-0.1,0.1-0.1h0.1l0,0l49.4,9.5c0.1,0,0.1,0.1,0.1,0.2v32.5
			c0,0.1-0.1,0.1-0.1,0.2L314.7,343.1L314.7,343.1z"/>
		<path class="st0" d="M315.8,290.6l49.4,9.5v32.5l-50.5,10.2L315.8,290.6 M315.8,290.3c-0.1,0-0.2,0-0.2,0.1
			c-0.1,0.1-0.1,0.2-0.1,0.3l-1.1,52.2c0,0.1,0,0.2,0.1,0.3c0.1,0.1,0.1,0.1,0.2,0.1c0,0,0,0,0.1,0l50.5-10.2c0.2,0,0.3-0.2,0.3-0.3
			v-32.5c0-0.2-0.1-0.3-0.3-0.3L315.8,290.3L315.8,290.3L315.8,290.3z"/>
	</g>
	<path class="st1" d="M294,317h-3.9c-0.7,0-1.2-0.5-1.2-1.2l0,0c0-0.7,0.5-1.2,1.2-1.2h3.9c0.7,0,1.2,0.5,1.2,1.2l0,0
		C295.2,316.4,294.6,317,294,317z"/>
	<path class="st1" d="M304.8,317h-3.9c-0.7,0-1.2-0.5-1.2-1.2l0,0c0-0.7,0.5-1.2,1.2-1.2h3.9c0.7,0,1.2,0.5,1.2,1.2l0,0
		C306,316.4,305.4,317,304.8,317z"/>
	<g>
		<path class="st1" d="M339.1,333.9H339l-0.1-0.1V298c0-0.1,0-0.1,0.1-0.1h0.1l0,0l2.8,0.8c0.1,0,0.1,0.1,0.1,0.2v34.2
			c0,0.1,0,0.1-0.1,0.2L339.1,333.9C339.2,333.9,339.2,333.9,339.1,333.9z"/>
		<path class="st1" d="M339.1,297.9c0.9,0.3,1.9,0.6,2.8,0.8c0,11.4,0,22.8,0,34.2c-0.9,0.3-1.9,0.6-2.8,0.8V297.9 M339.1,297.6
			c-0.1,0-0.1,0-0.2,0.1s-0.1,0.2-0.1,0.3v35.8c0,0.1,0.1,0.2,0.1,0.3c0.1,0,0.1,0.1,0.2,0.1h0.1l1.4-0.4l1.4-0.4
			c0.1,0,0.2-0.2,0.2-0.3v-34.2c0-0.2-0.1-0.3-0.2-0.3l-1.4-0.4L339.1,297.6C339.2,297.6,339.2,297.6,339.1,297.6L339.1,297.6z"/>
	</g>
	<g>
		<path class="st1" d="M345,333.1C345,333.1,344.9,333.1,345,333.1c-0.1-0.1-0.2-0.1-0.2-0.2v-34.2c0-0.1,0-0.1,0.1-0.1h0.1
			c0,0,0,0,0.1,0l2.2,0.8c0.1,0,0.1,0.1,0.1,0.2v32.6c0,0.1,0,0.1-0.1,0.2L345,333.1L345,333.1z"/>
		<path class="st1" d="M345,298.7c0.7,0.3,1.5,0.5,2.2,0.8c0,10.9,0,21.7,0,32.6c-0.7,0.3-1.5,0.5-2.2,0.8V298.7 M345,298.4
			c-0.1,0-0.1,0-0.2,0.1s-0.1,0.2-0.1,0.3V333c0,0.1,0.1,0.2,0.1,0.3c0.1,0,0.1,0.1,0.2,0.1h0.1l1.1-0.4l1.1-0.4
			c0.1,0,0.2-0.2,0.2-0.3v-32.6c0-0.1-0.1-0.3-0.2-0.3l-1.1-0.4l-1.1-0.4C345.1,298.4,345,298.4,345,298.4L345,298.4z"/>
	</g>
	<g>
		<path class="st1" d="M350.2,332.4C350.2,332.4,350.1,332.4,350.2,332.4c-0.1-0.1-0.2-0.1-0.2-0.2v-32.6c0-0.1,0-0.1,0.1-0.1h0.1
			c0,0,0,0,0.1,0l1.9,0.8c0.1,0,0.1,0.1,0.1,0.2v31.1c0,0.1,0,0.1-0.1,0.2L350.2,332.4C350.3,332.4,350.2,332.4,350.2,332.4z"/>
		<path class="st1" d="M350.2,299.7c0.6,0.3,1.2,0.5,1.9,0.8c0,10.4,0,20.7,0,31.1c-0.6,0.3-1.2,0.5-1.9,0.8V299.7 M350.2,299.3
			c-0.1,0-0.1,0-0.2,0.1s-0.1,0.2-0.1,0.3v32.6c0,0.1,0.1,0.2,0.1,0.3c0.1,0,0.1,0.1,0.2,0.1h0.1l0.9-0.4l0.9-0.4
			c0.1-0.1,0.2-0.2,0.2-0.3v-31.1c0-0.1-0.1-0.3-0.2-0.3l-1.9-0.8C350.3,299.3,350.3,299.3,350.2,299.3L350.2,299.3z"/>
	</g>
	<g>
		<path class="st1" d="M354.5,331.7L354.5,331.7c-0.1-0.1-0.2-0.1-0.2-0.2v-31.1c0-0.1,0-0.1,0.1-0.1h0.1c0,0,0,0,0.1,0l1.7,0.7
			c0.1,0,0.1,0.1,0.1,0.2v29.6c0,0.1,0,0.1-0.1,0.2L354.5,331.7C354.6,331.7,354.6,331.7,354.5,331.7z"/>
		<path class="st1" d="M354.5,300.5c0.6,0.2,1.1,0.5,1.7,0.7c0,9.9,0,19.8,0,29.6c-0.6,0.2-1.1,0.5-1.7,0.7V300.5 M354.5,300.1
			c-0.1,0-0.1,0-0.2,0.1s-0.2,0.2-0.2,0.3v31.1c0,0.1,0.1,0.2,0.2,0.3c0.1,0,0.1,0.1,0.2,0.1h0.1l0.9-0.4l0.9-0.4
			c0.1-0.1,0.2-0.2,0.2-0.3v-29.6c0-0.1-0.1-0.3-0.2-0.3l-0.9-0.4l-0.9-0.4C354.6,300.1,354.6,300.1,354.5,300.1L354.5,300.1z"/>
	</g>
	<g>
		<path class="st1" d="M358.5,331.4C358.5,331.4,358.4,331.4,358.5,331.4c-0.1-0.1-0.2-0.1-0.2-0.2v-30.4c0-0.1,0-0.1,0.1-0.1h0.1
			h0.1l1.4,0.7c0.1,0,0.1,0.1,0.1,0.2v29c0,0.1,0,0.1-0.1,0.2L358.5,331.4L358.5,331.4z"/>
		<path class="st1" d="M358.5,300.9c0.5,0.2,0.9,0.5,1.4,0.7c0,9.7,0,19.3,0,29c-0.5,0.2-0.9,0.5-1.4,0.7V300.9 M358.5,300.5
			c-0.1,0-0.1,0-0.2,0c-0.1,0.1-0.2,0.2-0.2,0.3v30.4c0,0.1,0.1,0.2,0.2,0.3c0.1,0,0.1,0,0.2,0s0.1,0,0.2,0l0.7-0.4l0.7-0.4
			c0.1-0.1,0.2-0.2,0.2-0.3v-29c0-0.1-0.1-0.2-0.2-0.3l-1-0.5l-0.3-0.2C358.6,300.5,358.5,300.5,358.5,300.5L358.5,300.5z"/>
	</g>
	<g>
		<path class="st1" d="M362.3,331.2L362.3,331.2c-0.1-0.1-0.2-0.1-0.2-0.2v-29.4c0-0.1,0-0.1,0.1-0.1h0.1h0.1l1.3,0.7
			c0.1,0,0.1,0.1,0.1,0.2v28.1c0,0.1,0,0.1-0.1,0.2L362.3,331.2C362.4,331.2,362.3,331.2,362.3,331.2z"/>
		<path class="st1" d="M362.3,301.6c0.4,0.2,0.9,0.5,1.3,0.7c0,9.4,0,18.7,0,28.1c-0.4,0.2-0.9,0.5-1.3,0.7V301.6 M362.3,301.2
			c-0.1,0-0.1,0-0.2,0c-0.1,0.1-0.2,0.2-0.2,0.3V331c0,0.1,0.1,0.2,0.2,0.3c0.1,0,0.1,0,0.2,0s0.1,0,0.2,0l0.7-0.3l0.7-0.3
			c0.1-0.1,0.2-0.2,0.2-0.3v-28.1c0-0.1-0.1-0.2-0.2-0.3l-1.3-0.7C362.4,301.3,362.4,301.2,362.3,301.2L362.3,301.2z"/>
	</g>
	<g>
		<path class="st1" d="M333.1,334.7H333l-0.1-0.1v-37.5c0-0.1,0-0.1,0.1-0.1h0.1l0,0l2.8,0.9c0.1,0,0.1,0.1,0.1,0.2v35.7
			c0,0.1,0,0.1-0.1,0.2L333.1,334.7L333.1,334.7z"/>
		<path class="st1" d="M333.1,297.1c0.9,0.3,1.9,0.6,2.8,0.9c0,11.9,0,23.8,0,35.7c-0.9,0.3-1.9,0.6-2.8,0.9V297.1 M333.1,296.7
			c-0.1,0-0.1,0-0.2,0.1s-0.1,0.2-0.1,0.3v37.5c0,0.1,0.1,0.2,0.1,0.3c0.1,0,0.1,0.1,0.2,0.1h0.1l1.5-0.5l1.3-0.4
			c0.1,0,0.2-0.2,0.2-0.3V298c0-0.1-0.1-0.3-0.2-0.3l-1.2-0.4L333.1,296.7L333.1,296.7L333.1,296.7z"/>
	</g>
	<g>
		<path class="st1" d="M326.5,335.9h-0.1l-0.1-0.1v-39.6c0-0.1,0-0.1,0.1-0.1h0.1l0,0l3.4,0.9c0.1,0,0.1,0.1,0.1,0.2V335
			c0,0.1-0.1,0.1-0.1,0.2L326.5,335.9L326.5,335.9z"/>
		<path class="st1" d="M326.5,296.1c1.1,0.3,2.2,0.6,3.4,0.9c0,12.6,0,25.2,0,37.8c-1.1,0.3-2.2,0.6-3.4,0.9V296.1 M326.5,295.8
			c-0.1,0-0.1,0-0.2,0.1s-0.1,0.2-0.1,0.3v39.6c0,0.1,0,0.2,0.1,0.3c0.1,0,0.1,0.1,0.2,0.1h0.1l1.7-0.5l1.7-0.5
			c0.1,0,0.2-0.2,0.2-0.3V297c0-0.2-0.1-0.3-0.2-0.3l-0.9-0.2L326.5,295.8L326.5,295.8L326.5,295.8z"/>
	</g>
	<g>
		<path class="st1" d="M318.9,337.2h-0.1l-0.1-0.1v-42.3c0-0.1,0-0.1,0.1-0.1h0.1l0,0l3.4,1c0.1,0,0.1,0.1,0.1,0.2v40.4
			c0,0.1,0,0.1-0.1,0.2L318.9,337.2L318.9,337.2z"/>
		<path class="st1" d="M318.9,294.7c1.1,0.3,2.2,0.7,3.4,1c0,13.5,0,26.9,0,40.4c-1.1,0.3-2.2,0.7-3.4,1V294.7 M318.9,294.4
			c-0.1,0-0.1,0-0.2,0.1s-0.1,0.2-0.1,0.3v42.3c0,0.1,0.1,0.2,0.1,0.3c0.1,0,0.1,0.1,0.2,0.1h0.1l1.6-0.5l1.8-0.5
			c0.1,0,0.2-0.2,0.2-0.3v-40.4c0-0.2-0.1-0.3-0.2-0.3l-1.8-0.5L318.9,294.4C319,294.4,318.9,294.4,318.9,294.4L318.9,294.4z"/>
	</g>
</g>
<g>
	<g>
		<path class="st0" d="M299.6,412.8l-13.8-3.1c-0.1,0-0.1-0.1-0.1-0.2v-41.7c0-0.1,0.1-0.2,0.1-0.2l13.8-2.5l0,0h0.1l0.1,0.1v47.2
			c0,0.1,0,0.1-0.1,0.1C299.7,412.8,299.7,412.8,299.6,412.8C299.7,412.8,299.6,412.8,299.6,412.8z"/>
		<path class="st0" d="M299.7,365.4v47.2l-13.8-3.1v-41.7L299.7,365.4 M299.7,365.1C299.7,365.1,299.6,365.1,299.7,365.1l-13.8,2.5
			c-0.2,0-0.3,0.2-0.3,0.3v41.7c0,0.2,0.1,0.3,0.3,0.3l13.8,3.1c0,0,0,0,0.1,0s0.2,0,0.2-0.1c0.1-0.1,0.1-0.2,0.1-0.3v-47.2
			c0-0.1,0-0.2-0.1-0.3C299.8,365.1,299.7,365.1,299.7,365.1L299.7,365.1z"/>
	</g>
	<g>
		<path class="st0" d="M315.3,415.7l-12.9-2.9c-0.1,0-0.1-0.1-0.1-0.2v-47.2c0-0.1,0.1-0.2,0.1-0.2l12.9-2.1h0.1l0.1,0.1v52.2
			c0,0.1,0,0.1-0.1,0.1C315.4,415.7,315.3,415.7,315.3,415.7L315.3,415.7z"/>
		<path class="st0" d="M315.3,363.3v52.2l-12.9-2.9v-47.2L315.3,363.3 M315.3,362.9L315.3,362.9l-12.9,2.2c-0.2,0-0.3,0.2-0.3,0.3
			v47.2c0,0.2,0.1,0.3,0.3,0.3l12.9,2.9c0,0,0,0,0.1,0s0.2,0,0.2-0.1c0.1-0.1,0.1-0.2,0.1-0.3v-52.2c0-0.1,0-0.2-0.1-0.3
			C315.5,363,315.4,362.9,315.3,362.9L315.3,362.9z"/>
	</g>
	<g>
		<path class="st0" d="M318.1,415.7H318l-0.1-0.1l1.1-52.2c0,0,0-0.1,0.1-0.1h0.1l0,0l49.4,9.5c0.1,0,0.1,0.1,0.1,0.2v32.5
			c0,0.1-0.1,0.1-0.1,0.2L318.1,415.7L318.1,415.7z"/>
		<path class="st0" d="M319.1,363.3l49.4,9.5v32.5L318,415.5L319.1,363.3 M319.1,362.9c-0.1,0-0.2,0-0.2,0.1
			c-0.1,0.1-0.1,0.2-0.1,0.3l-1.1,52.2c0,0.1,0,0.2,0.1,0.3c0.1,0.1,0.1,0.1,0.2,0.1c0,0,0,0,0.1,0l50.5-10.2c0.2,0,0.3-0.2,0.3-0.3
			v-32.5c0-0.2-0.1-0.3-0.3-0.3L319.1,362.9C319.2,362.9,319.2,362.9,319.1,362.9L319.1,362.9z"/>
	</g>
	<path class="st1" d="M297.3,389.6h-3.9c-0.7,0-1.2-0.5-1.2-1.2l0,0c0-0.7,0.5-1.2,1.2-1.2h3.9c0.7,0,1.2,0.5,1.2,1.2l0,0
		C298.5,389,298,389.6,297.3,389.6z"/>
	<path class="st1" d="M308.1,389.6h-3.9c-0.7,0-1.2-0.5-1.2-1.2l0,0c0-0.7,0.5-1.2,1.2-1.2h3.9c0.7,0,1.2,0.5,1.2,1.2l0,0
		C309.3,389,308.8,389.6,308.1,389.6z"/>
	<g>
		<path class="st1" d="M342.5,406.5h-0.1l-0.1-0.1v-35.8c0-0.1,0-0.1,0.1-0.1h0.1l0,0l2.8,0.8c0.1,0,0.1,0.1,0.1,0.2v34.2
			c0,0.1,0,0.1-0.1,0.2L342.5,406.5L342.5,406.5z"/>
		<path class="st1" d="M342.5,370.5c0.9,0.3,1.9,0.6,2.8,0.8c0,11.4,0,22.8,0,34.2c-0.9,0.3-1.9,0.6-2.8,0.8V370.5 M342.5,370.2
			c-0.1,0-0.1,0-0.2,0.1s-0.1,0.2-0.1,0.3v35.8c0,0.1,0.1,0.2,0.1,0.3c0.1,0,0.1,0.1,0.2,0.1h0.1l1.4-0.4l1.4-0.4
			c0.1,0,0.2-0.2,0.2-0.3v-34.2c0-0.2-0.1-0.3-0.2-0.3l-1.4-0.4L342.5,370.2C342.6,370.2,342.5,370.2,342.5,370.2L342.5,370.2z"/>
	</g>
	<g>
		<path class="st1" d="M348.3,405.7L348.3,405.7c-0.1-0.1-0.2-0.1-0.2-0.2v-34.2c0-0.1,0-0.1,0.1-0.1h0.1c0,0,0,0,0.1,0l2.2,0.8
			c0.1,0,0.1,0.1,0.1,0.2v32.6c0,0.1,0,0.1-0.1,0.2L348.3,405.7C348.4,405.7,348.4,405.7,348.3,405.7z"/>
		<path class="st1" d="M348.3,371.3c0.7,0.3,1.5,0.5,2.2,0.8c0,10.9,0,21.7,0,32.6c-0.7,0.3-1.5,0.5-2.2,0.8V371.3 M348.3,371
			c-0.1,0-0.1,0-0.2,0.1s-0.1,0.2-0.1,0.3v34.2c0,0.1,0.1,0.2,0.1,0.3c0.1,0,0.1,0.1,0.2,0.1h0.1l1.1-0.4l1.1-0.4
			c0.1,0,0.2-0.2,0.2-0.3v-32.6c0-0.1-0.1-0.3-0.2-0.3l-1.1-0.4l-1.1-0.4C348.4,371,348.4,371,348.3,371L348.3,371z"/>
	</g>
	<g>
		<path class="st1" d="M353.6,405.1C353.5,405.1,353.5,405.1,353.6,405.1c-0.1-0.1-0.2-0.1-0.2-0.2v-32.6c0-0.1,0-0.1,0.1-0.1h0.1
			c0,0,0,0,0.1,0l1.9,0.8c0.1,0,0.1,0.1,0.1,0.2v31.1c0,0.1,0,0.1-0.1,0.2L353.6,405.1L353.6,405.1z"/>
		<path class="st1" d="M353.6,372.3c0.6,0.3,1.2,0.5,1.9,0.8c0,10.4,0,20.7,0,31.1c-0.6,0.3-1.2,0.5-1.9,0.8V372.3 M353.6,372
			c-0.1,0-0.1,0-0.2,0.1s-0.1,0.2-0.1,0.3V405c0,0.1,0.1,0.2,0.1,0.3c0.1,0,0.1,0.1,0.2,0.1h0.1l0.9-0.4l0.9-0.4
			c0.1-0.1,0.2-0.2,0.2-0.3V373c0-0.1-0.1-0.3-0.2-0.3L353.6,372C353.7,372,353.6,372,353.6,372L353.6,372z"/>
	</g>
	<g>
		<path class="st1" d="M357.9,404.3C357.9,404.3,357.8,404.3,357.9,404.3c-0.1-0.1-0.2-0.1-0.2-0.2V373c0-0.1,0-0.1,0.1-0.1h0.1
			c0,0,0,0,0.1,0l1.7,0.7c0.1,0,0.1,0.1,0.1,0.2v29.6c0,0.1,0,0.1-0.1,0.2L357.9,404.3L357.9,404.3z"/>
		<path class="st1" d="M357.9,373.1c0.6,0.2,1.1,0.5,1.7,0.7c0,9.9,0,19.8,0,29.6c-0.6,0.2-1.1,0.5-1.7,0.7V373.1 M357.9,372.7
			c-0.1,0-0.1,0-0.2,0.1s-0.2,0.2-0.2,0.3v31.1c0,0.1,0.1,0.2,0.2,0.3c0.1,0,0.1,0.1,0.2,0.1h0.1l0.9-0.4l0.9-0.4
			c0.1-0.1,0.2-0.2,0.2-0.3v-29.6c0-0.1-0.1-0.3-0.2-0.3l-0.9-0.4l-0.9-0.4C358,372.8,357.9,372.7,357.9,372.7L357.9,372.7z"/>
	</g>
	<g>
		<path class="st1" d="M361.8,404L361.8,404c-0.1-0.1-0.2-0.1-0.2-0.2v-30.4c0-0.1,0-0.1,0.1-0.1h0.1h0.1l1.4,0.7
			c0.1,0,0.1,0.1,0.1,0.2v29c0,0.1,0,0.1-0.1,0.2L361.8,404C361.9,404,361.9,404,361.8,404z"/>
		<path class="st1" d="M361.8,373.5c0.5,0.2,0.9,0.5,1.4,0.7c0,9.7,0,19.3,0,29c-0.5,0.2-0.9,0.5-1.4,0.7V373.5 M361.8,373.1
			c-0.1,0-0.1,0-0.2,0c-0.1,0.1-0.2,0.2-0.2,0.3v30.4c0,0.1,0.1,0.2,0.2,0.3c0.1,0,0.1,0,0.2,0s0.1,0,0.2,0l0.7-0.4l0.7-0.4
			c0.1-0.1,0.2-0.2,0.2-0.3v-29c0-0.1-0.1-0.2-0.2-0.3l-1-0.5l-0.3-0.2C361.9,373.1,361.9,373.1,361.8,373.1L361.8,373.1z"/>
	</g>
	<g>
		<path class="st1" d="M365.7,403.8C365.6,403.8,365.6,403.8,365.7,403.8c-0.1-0.1-0.2-0.1-0.2-0.2v-29.4c0-0.1,0-0.1,0.1-0.1h0.1
			h0.1l1.3,0.7c0.1,0,0.1,0.1,0.1,0.2v28.1c0,0.1,0,0.1-0.1,0.2L365.7,403.8L365.7,403.8z"/>
		<path class="st1" d="M365.7,374.2c0.4,0.2,0.9,0.5,1.3,0.7c0,9.4,0,18.7,0,28.1c-0.4,0.2-0.9,0.5-1.3,0.7V374.2 M365.7,373.9
			c-0.1,0-0.1,0-0.2,0c-0.1,0.1-0.2,0.2-0.2,0.3v29.4c0,0.1,0.1,0.2,0.2,0.3c0.1,0,0.1,0,0.2,0s0.1,0,0.2,0l0.7-0.3l0.7-0.3
			c0.1-0.1,0.2-0.2,0.2-0.3v-28.1c0-0.1-0.1-0.2-0.2-0.3l-1.3-0.7C365.8,373.9,365.7,373.9,365.7,373.9L365.7,373.9z"/>
	</g>
	<g>
		<path class="st1" d="M336.4,407.3h-0.1l-0.1-0.1v-37.5c0-0.1,0-0.1,0.1-0.1h0.1l0,0l2.8,0.9c0.1,0,0.1,0.1,0.1,0.2v35.7
			c0,0.1,0,0.1-0.1,0.2L336.4,407.3L336.4,407.3z"/>
		<path class="st1" d="M336.4,369.7c0.9,0.3,1.9,0.6,2.8,0.9c0,11.9,0,23.8,0,35.7c-0.9,0.3-1.9,0.6-2.8,0.9V369.7 M336.4,369.4
			c-0.1,0-0.1,0-0.2,0.1s-0.1,0.2-0.1,0.3v37.5c0,0.1,0.1,0.2,0.1,0.3c0.1,0,0.1,0.1,0.2,0.1h0.1l1.5-0.5l1.3-0.4
			c0.1,0,0.2-0.2,0.2-0.3v-35.7c0-0.1-0.1-0.3-0.2-0.3l-1.2-0.4L336.4,369.4C336.5,369.4,336.4,369.4,336.4,369.4L336.4,369.4z"/>
	</g>
	<g>
		<path class="st1" d="M329.8,408.5h-0.1l-0.1-0.1v-39.6c0-0.1,0-0.1,0.1-0.1h0.1l0,0l3.4,0.9c0.1,0,0.1,0.1,0.1,0.2v37.8
			c0,0.1-0.1,0.1-0.1,0.2L329.8,408.5L329.8,408.5z"/>
		<path class="st1" d="M329.8,368.7c1.1,0.3,2.2,0.6,3.4,0.9c0,12.6,0,25.2,0,37.8c-1.1,0.3-2.2,0.6-3.4,0.9V368.7 M329.8,368.4
			c-0.1,0-0.1,0-0.2,0.1s-0.1,0.2-0.1,0.3v39.6c0,0.1,0,0.2,0.1,0.3c0.1,0,0.1,0.1,0.2,0.1h0.1l1.7-0.5l1.7-0.5
			c0.1,0,0.2-0.2,0.2-0.3v-37.8c0-0.2-0.1-0.3-0.2-0.3l-0.9-0.2L329.8,368.4C329.9,368.4,329.8,368.4,329.8,368.4L329.8,368.4z"/>
	</g>
	<g>
		<path class="st1" d="M322.3,409.9h-0.1l-0.1-0.1v-42.3c0-0.1,0-0.1,0.1-0.1h0.1l0,0l3.4,1c0.1,0,0.1,0.1,0.1,0.2V409
			c0,0.1,0,0.1-0.1,0.2L322.3,409.9C322.3,409.8,322.3,409.9,322.3,409.9z"/>
		<path class="st1" d="M322.3,367.3c1.1,0.3,2.2,0.7,3.4,1c0,13.5,0,26.9,0,40.4c-1.1,0.3-2.2,0.7-3.4,1V367.3 M322.3,367
			c-0.1,0-0.1,0-0.2,0.1s-0.1,0.2-0.1,0.3v42.3c0,0.1,0.1,0.2,0.1,0.3c0.1,0,0.1,0.1,0.2,0.1h0.1l1.6-0.5l1.8-0.5
			c0.1,0,0.2-0.2,0.2-0.3v-40.4c0-0.2-0.1-0.3-0.2-0.3l-1.8-0.5L322.3,367L322.3,367L322.3,367z"/>
	</g>
</g>
<g>
	<path class="st0" d="M499,262.1v22.5c0,5-4,9-9,9h-43.1c-5,0-9-4-9-9v-22.5c0-5,4-9,9-9h6.3l6.4-6.7h17.9l6,6.7h6.5
		C495,253.1,499,257.2,499,262.1z"/>
	<g>
		<path class="st1" d="M468.4,264.1c4.9,0,9,4,9,9s-4,9-9,9s-9-4-9-9S463.5,264.1,468.4,264.1 M468.4,258.9
			c-7.8,0-14.1,6.3-14.1,14.1c0,7.8,6.3,14.1,14.1,14.1s14.1-6.3,14.1-14.1C482.5,265.2,476.2,258.9,468.4,258.9L468.4,258.9z"/>
	</g>
</g>
<g>
	<path class="st3" d="M484,315.7v22.5c0,5-4,9-9,9h-43.1c-5,0-9-4-9-9v-22.5c0-5,4-9,9-9h6.3l6.4-6.7h17.9l6,6.7h6.5
		C479.9,306.6,484,310.7,484,315.7z"/>
	<g>
		<path class="st1" d="M453.4,317.6c4.9,0,9,4,9,9s-4,9-9,9s-9-4-9-9S448.5,317.6,453.4,317.6 M453.4,312.5
			c-7.8,0-14.1,6.3-14.1,14.1c0,7.8,6.3,14.1,14.1,14.1s14.1-6.3,14.1-14.1S461.2,312.5,453.4,312.5L453.4,312.5z"/>
	</g>
</g>
<g>
	<path class="st4" d="M512,336.4v22.5c0,5-4,9-9,9h-43.1c-5,0-9-4-9-9v-22.5c0-5,4-9,9-9h6.3l6.4-6.7h17.9l6,6.7h6.5
		C508,327.4,512,331.5,512,336.4z"/>
	<g>
		<path class="st1" d="M481.5,338.3c4.9,0,9,4,9,9s-4,9-9,9s-9-4-9-9S476.5,338.3,481.5,338.3 M481.5,333.2
			c-7.8,0-14.1,6.3-14.1,14.1c0,7.8,6.3,14.1,14.1,14.1s14.1-6.3,14.1-14.1C495.5,339.5,489.2,333.2,481.5,333.2L481.5,333.2z"/>
	</g>
</g>
<g>
	<path class="st5" d="M482.3,357.5V380c0,5-4,9-9,9h-43.1c-5,0-9-4-9-9v-22.5c0-5,4-9,9-9h6.3l6.4-6.7h17.9l6,6.7h6.5
		C478.3,348.5,482.3,352.5,482.3,357.5z"/>
	<g>
		<path class="st1" d="M451.8,359.4c4.9,0,9,4,9,9s-4,9-9,9s-9-4-9-9S446.8,359.4,451.8,359.4 M451.8,354.3
			c-7.8,0-14.1,6.3-14.1,14.1c0,7.8,6.3,14.1,14.1,14.1s14.1-6.3,14.1-14.1C465.8,360.6,459.5,354.3,451.8,354.3L451.8,354.3z"/>
	</g>
</g>
<g>
	<path class="st0" d="M513.1,381.7v22.5c0,5-4,9-9,9H461c-5,0-9-4-9-9v-22.5c0-5,4-9,9-9h6.3l6.4-6.7h17.9l6,6.7h6.5
		C509,372.7,513.1,376.7,513.1,381.7z"/>
	<g>
		<path class="st1" d="M482.5,383.6c4.9,0,9,4,9,9s-4,9-9,9s-9-4-9-9S477.6,383.6,482.5,383.6 M482.5,378.5
			c-7.8,0-14.1,6.3-14.1,14.1c0,7.8,6.3,14.1,14.1,14.1s14.1-6.3,14.1-14.1S490.3,378.5,482.5,378.5L482.5,378.5z"/>
	</g>
</g>
<line class="st6" x1="218.9" y1="119.5" x2="263.1" y2="119.5"/>
<line class="st6" x1="530.5" y1="128.5" x2="584.4" y2="128.5"/>
<line class="st6" x1="594" y1="217.8" x2="594" y2="347.3"/>
<line class="st7" x1="512" y1="347.3" x2="594" y2="347.3"/>
<line class="st6" x1="518.9" y1="140" x2="518.9" y2="151.8"/>
<line class="st7" x1="437" y1="277.4" x2="388.2" y2="277.4"/>
<g>
	<rect x="619.2" y="138.8" class="st0" width="13.6" height="13.6"/>
	<rect x="636.2" y="138.8" class="st0" width="13.6" height="13.6"/>
	<rect x="653.2" y="138.8" class="st0" width="13.6" height="13.6"/>
	<rect x="670.2" y="138.8" class="st0" width="13.6" height="13.6"/>
	<rect x="687.2" y="138.8" class="st0" width="13.6" height="13.6"/>
	<rect x="670.2" y="122.4" class="st0" width="13.6" height="13.6"/>
	<rect x="653.2" y="122.4" class="st0" width="13.6" height="13.6"/>
	<rect x="636.2" y="122.4" class="st0" width="13.6" height="13.6"/>
	<rect x="670.2" y="106" class="st0" width="13.6" height="13.6"/>
	<path class="st0" d="M608.8,154.7h95.8c0,0,6.3-0.4,9-2.3c1.3-3.1-3.6-8.3-2.4-16.4c1.2-8.1,4.8-10.1,4.8-10.1s6.8,3.2,8.8,7.2
		l3.6,9.2c0,0,3.6-0.4,9.6,0s9.6,3.3,9.6,3.3s-1.5,7.7-7.6,11.1c-4.3,2.4-12.3-0.1-14.8,2.4s-13.4,26.2-28.2,34.6s-53.8,20.2-75-1
		S608.8,154.7,608.8,154.7z"/>
</g>
<g>
	<path class="st8" d="M414.4,165.9c1.3-0.2,2.8-0.3,4.4-0.3c3,0,5.1,0.7,6.6,2c1.4,1.3,2.3,3.2,2.3,5.8c0,2.6-0.8,4.8-2.3,6.3
		s-4,2.3-7.2,2.3c-1.5,0-2.7-0.1-3.8-0.2V165.9z M416.5,180.2c0.5,0.1,1.3,0.1,2.1,0.1c4.5,0,6.9-2.5,6.9-6.9c0-3.8-2.1-6.2-6.6-6.2
		c-1.1,0-1.9,0.1-2.4,0.2V180.2z"/>
	<path class="st8" d="M441,176c0,4.3-3,6.2-5.8,6.2c-3.1,0-5.6-2.3-5.6-6c0-3.9,2.5-6.2,5.8-6.2S441,172.4,441,176z M431.7,176.1
		c0,2.5,1.5,4.5,3.5,4.5s3.5-1.9,3.5-4.5c0-2-1-4.5-3.5-4.5S431.7,173.9,431.7,176.1z"/>
	<path class="st8" d="M451.9,181.4c-0.6,0.3-1.8,0.7-3.3,0.7c-3.5,0-5.8-2.4-5.8-5.9c0-3.6,2.4-6.2,6.2-6.2c1.2,0,2.4,0.3,2.9,0.6
		l-0.5,1.6c-0.5-0.3-1.3-0.6-2.4-0.6c-2.7,0-4.1,2-4.1,4.4c0,2.7,1.7,4.3,4,4.3c1.2,0,2-0.3,2.6-0.6L451.9,181.4z"/>
	<path class="st8" d="M456.5,175.6L456.5,175.6c0.3-0.4,0.7-0.9,1.1-1.3l3.4-4h2.5l-4.5,4.8l5.1,6.8h-2.6l-4-5.6l-1.1,1.2v4.4h-2
		v-17h2.1V175.6z"/>
	<path class="st8" d="M466.8,176.5c0,2.9,1.9,4,4,4c1.5,0,2.4-0.3,3.2-0.6l0.4,1.5c-0.7,0.3-2,0.7-3.9,0.7c-3.6,0-5.7-2.4-5.7-5.9
		s2.1-6.3,5.4-6.3c3.8,0,4.8,3.3,4.8,5.5c0,0.4,0,0.8-0.1,1L466.8,176.5L466.8,176.5z M473,174.9c0-1.3-0.6-3.4-2.9-3.4
		c-2.1,0-3.1,2-3.2,3.4H473z"/>
	<path class="st8" d="M477.6,173.9c0-1.4,0-2.5-0.1-3.6h1.8l0.1,2.3h0.1c0.5-1.6,1.8-2.5,3.2-2.5c0.2,0,0.4,0,0.6,0.1v2
		c-0.2,0-0.4-0.1-0.7-0.1c-1.5,0-2.5,1.1-2.8,2.7c0,0.3-0.1,0.6-0.1,1v6.2h-2.1V173.9z"/>
	<path class="st8" d="M490.8,181.9v-10h-1.6v-1.6h1.6v-0.6c0-3.1,1.8-5.1,5.1-5.1c1.1,0,2.4,0.3,3,0.8l-0.6,1.6
		c-0.5-0.4-1.4-0.7-2.4-0.7c-2.2,0-2.9,1.6-2.9,3.4v0.6h6.7v11.6h-2.1v-10h-4.7v10L490.8,181.9L490.8,181.9z"/>
	<path class="st8" d="M503.1,164.8h2.1v17h-2.1V164.8z"/>
	<path class="st8" d="M510,176.5c0,2.9,1.9,4,4,4c1.5,0,2.4-0.3,3.2-0.6l0.4,1.5c-0.7,0.3-2,0.7-3.9,0.7c-3.6,0-5.7-2.4-5.7-5.9
		s2.1-6.3,5.4-6.3c3.8,0,4.8,3.3,4.8,5.5c0,0.4,0,0.8-0.1,1L510,176.5L510,176.5z M516.2,174.9c0-1.3-0.6-3.4-2.9-3.4
		c-2.1,0-3.1,2-3.2,3.4H516.2z"/>
</g>
<line class="st6" x1="518.2" y1="198.9" x2="518.2" y2="210.6"/>
</svg>
